<?xml version="1.0" encoding="UTF-8" ?>
<!DOCTYPE svg PUBLIC "-//W3C//DTD SVG 1.1//EN" "http://www.w3.org/Graphics/SVG/1.1/DTD/svg11.dtd">
<svg width="558pt" height="558pt" viewBox="0 0 558 558" version="1.1" xmlns="http://www.w3.org/2000/svg">
<path fill="#fbfbfb" d=" M 0.00 0.00 L 558.00 0.00 L 558.00 558.00 L 0.00 558.00 L 0.00 0.00 Z" />
<path fill="#000000" d=" M 251.55 1.83 C 293.17 -2.17 335.72 3.16 374.91 17.83 C 414.85 32.50 451.32 56.54 480.43 87.58 C 509.99 118.49 531.86 156.55 544.36 197.41 C 556.61 237.21 559.52 279.79 553.22 320.92 C 547.33 359.35 533.11 396.43 512.15 429.16 C 491.51 461.05 464.29 488.65 432.74 509.80 C 397.24 533.34 356.33 548.81 314.04 554.18 C 269.64 559.89 223.84 554.83 181.89 539.10 C 146.24 525.92 113.27 505.41 85.99 478.92 C 37.52 432.91 7.03 368.65 1.54 302.09 C -0.99 271.25 1.38 239.96 9.11 209.97 C 20.88 163.88 44.49 120.75 77.58 86.51 C 122.86 38.57 185.94 8.10 251.55 1.83 Z" />
<path fill="#fbfbfb" d=" M 97.64 72.72 C 144.79 30.98 206.85 6.42 269.80 4.71 C 269.22 10.20 268.79 15.70 268.22 21.18 C 209.88 23.50 152.46 46.22 108.74 84.99 C 106.40 83.51 103.84 82.11 100.98 82.22 C 95.03 82.06 89.29 86.95 88.92 92.97 C 88.45 96.14 89.76 99.13 91.32 101.80 C 66.56 127.75 47.58 159.10 35.70 192.92 C 31.16 189.35 26.60 185.81 22.03 182.29 C 37.58 140.21 63.95 102.29 97.64 72.72 Z" />
<path fill="#fbfbfb" d=" M 270.20 21.29 C 270.79 15.76 271.21 10.22 271.81 4.69 C 310.90 3.52 350.23 11.15 386.14 26.61 C 382.76 31.14 379.43 35.70 376.03 40.21 C 342.60 26.60 306.29 19.80 270.20 21.29 Z" />
<path fill="#fbfbfb" d=" M 269.98 24.29 C 305.51 22.77 341.26 29.39 374.20 42.68 C 362.36 58.72 350.39 74.66 338.60 90.73 C 335.35 83.46 328.27 77.83 320.18 77.37 C 308.52 76.12 297.11 86.17 297.09 97.93 C 296.31 107.58 303.26 116.60 312.24 119.56 C 312.76 123.17 316.21 126.36 319.97 125.25 C 322.82 124.81 324.07 121.97 324.85 119.53 C 332.13 117.05 337.98 110.83 339.67 103.28 C 345.10 106.85 350.63 110.26 356.04 113.87 C 356.19 116.22 356.61 118.80 358.68 120.28 C 360.98 122.39 364.27 121.75 366.94 120.82 C 368.00 121.51 369.05 122.22 370.11 122.93 C 367.25 124.94 363.59 126.32 360.12 125.13 C 355.22 123.95 351.95 118.85 352.46 113.91 C 351.81 113.60 351.16 113.29 350.51 112.98 C 349.68 116.30 348.44 119.56 348.31 123.01 C 347.61 131.67 351.14 140.30 356.85 146.71 C 338.52 149.37 320.20 152.16 301.88 154.85 C 300.21 155.15 298.64 154.30 297.09 153.84 C 282.25 148.44 267.27 143.44 252.49 137.89 C 256.51 137.07 260.76 137.55 264.49 139.27 C 265.76 140.00 267.90 140.05 268.22 138.27 C 270.98 131.30 272.75 123.84 273.00 116.34 C 270.47 113.77 266.14 115.54 263.12 113.59 C 261.23 113.35 261.89 111.39 261.93 110.08 C 264.64 81.49 267.23 52.88 269.98 24.29 Z" />
<path fill="#fbfbfb" d=" M 190.15 39.73 C 215.11 30.66 241.39 25.39 267.92 24.11 C 266.45 41.11 264.73 58.09 263.24 75.10 C 256.83 64.05 247.43 54.56 236.15 48.52 C 239.85 47.50 242.74 43.82 242.09 39.90 C 241.54 34.70 234.91 31.38 230.54 34.42 C 227.11 36.36 226.17 40.71 227.35 44.27 C 215.71 39.29 202.64 37.99 190.15 39.73 Z" />
<path fill="#fbfbfb" d=" M 377.88 41.07 C 381.29 36.54 384.61 31.95 388.04 27.43 C 422.25 42.14 453.22 64.20 478.60 91.42 C 517.70 132.85 542.98 186.95 550.23 243.40 C 545.14 241.55 540.01 239.82 534.92 237.98 C 533.94 237.50 532.38 237.41 532.44 235.98 C 525.27 193.30 507.24 152.43 480.26 118.57 C 453.37 84.70 417.92 57.53 377.88 41.07 Z" />
<path fill="#fbfbfb" d=" M 232.45 35.58 C 236.40 33.90 241.15 37.83 240.07 42.03 C 239.54 45.93 234.54 48.00 231.38 45.61 C 227.42 43.46 228.30 37.00 232.45 35.58 Z" />
<path fill="#fbfbfb" d=" M 175.65 45.53 C 185.01 42.01 195.08 40.33 205.08 41.12 C 228.32 42.47 250.20 56.25 261.83 76.36 C 256.76 78.84 252.48 83.10 250.63 88.50 C 247.49 96.41 249.92 106.16 256.49 111.60 C 257.65 112.91 260.10 113.71 259.39 115.86 C 258.84 122.36 258.15 128.85 257.60 135.35 C 254.66 135.48 251.75 135.97 248.91 136.75 C 243.83 134.38 237.13 134.25 233.77 129.22 C 217.46 109.18 200.95 89.32 184.64 69.28 C 186.78 66.68 188.64 63.65 188.75 60.17 C 189.54 52.78 183.16 45.42 175.65 45.53 Z" />
<path fill="#fbfbfb" d=" M 339.33 93.00 C 351.57 76.51 363.82 60.03 376.05 43.52 C 418.05 60.68 454.95 89.69 482.18 125.91 C 506.35 158.16 522.73 196.25 529.37 236.01 C 510.47 229.30 491.55 222.67 472.67 215.90 C 478.64 208.38 482.74 199.17 483.28 189.51 C 486.58 193.53 493.55 193.96 496.63 189.46 C 500.35 185.14 497.70 177.67 492.20 176.42 C 488.90 175.36 485.50 176.97 483.33 179.46 C 482.30 163.08 471.71 148.32 457.69 140.27 C 449.44 135.49 439.71 133.63 430.24 134.22 C 429.84 134.57 429.04 135.27 428.64 135.62 C 427.24 141.88 424.77 147.92 421.09 153.20 C 416.01 150.00 411.00 146.70 405.92 143.51 C 410.33 137.07 412.66 129.18 411.61 121.36 C 413.59 120.03 415.70 118.74 417.04 116.70 C 420.72 111.72 419.78 103.96 414.92 100.09 C 410.64 96.11 403.84 96.24 399.14 99.41 C 392.53 94.67 384.21 92.39 376.12 93.53 C 367.65 94.18 360.08 99.06 354.85 105.57 C 356.52 107.33 358.32 105.41 360.09 105.00 C 366.31 102.80 373.69 108.42 373.30 114.98 C 373.38 117.24 372.31 119.30 371.52 121.35 C 370.45 120.70 369.39 120.05 368.34 119.40 C 370.18 116.17 370.02 111.53 366.55 109.48 C 363.21 106.93 358.89 108.91 356.64 111.89 C 351.67 108.70 346.81 105.33 341.67 102.42 C 340.12 102.08 340.12 100.44 339.70 99.25 C 339.15 99.05 338.05 98.63 337.50 98.42 L 338.51 100.39 C 337.75 99.84 336.22 98.75 335.46 98.20 C 336.30 97.11 337.16 96.04 338.02 94.97 C 337.95 95.77 337.82 97.38 337.75 98.19 C 338.59 98.24 339.42 98.30 340.27 98.37 C 339.93 96.58 339.62 94.79 339.33 93.00 Z" />
<path fill="#fbfbfb" d=" M 170.35 48.41 C 177.24 45.00 186.19 50.29 186.76 57.88 C 187.72 65.01 181.07 71.89 173.89 70.92 C 167.95 70.51 162.95 64.94 163.21 58.99 C 163.15 54.44 166.15 50.12 170.35 48.41 Z" />
<path fill="#fbfbfb" d=" M 138.91 76.38 C 144.88 66.17 153.36 57.46 163.49 51.33 C 160.13 56.70 160.47 64.32 165.16 68.80 C 169.69 73.74 177.54 74.09 183.04 70.58 C 199.70 90.72 216.20 110.99 232.85 131.13 C 205.48 121.30 178.01 111.75 150.63 101.95 C 153.68 92.00 148.38 80.59 138.91 76.38 Z" />
<path fill="#fbfbfb" d=" M 110.78 87.17 C 123.19 75.97 137.06 66.55 151.30 57.86 C 145.55 63.40 140.38 69.61 136.52 76.62 C 138.42 78.77 141.24 79.72 143.29 81.69 C 148.58 86.61 150.90 94.68 148.55 101.59 C 146.71 107.91 141.21 112.79 134.90 114.39 C 132.44 114.84 129.91 114.95 127.54 115.80 C 127.94 119.48 128.24 123.17 128.14 126.87 C 127.53 144.60 126.91 162.33 126.26 180.07 C 126.12 181.42 126.46 183.32 124.71 183.73 C 119.58 185.11 114.32 186.01 109.13 187.14 C 105.83 185.48 103.05 182.90 101.54 179.49 C 101.00 179.40 99.92 179.22 99.37 179.13 C 96.49 182.38 94.59 186.28 93.37 190.42 C 77.60 194.10 61.69 197.20 45.88 200.70 C 43.25 198.81 40.71 196.80 38.17 194.79 C 49.95 161.06 68.78 129.79 93.41 103.88 C 98.10 106.89 104.80 107.14 108.91 102.99 C 113.48 99.09 113.77 92.11 110.78 87.17 Z" />
<path fill="#fbfbfb" d=" M 251.80 100.20 C 249.43 91.36 254.64 81.70 262.87 78.03 C 261.94 89.32 260.82 100.59 259.75 111.86 C 255.94 108.94 252.73 105.01 251.80 100.20 Z" />
<path fill="#fbfbfb" d=" M 315.26 80.47 C 320.75 78.09 327.49 82.64 327.20 88.64 C 327.49 95.32 318.76 99.87 313.53 95.61 C 307.92 92.06 309.07 82.74 315.26 80.47 Z" />
<path fill="#fbfbfb" d=" M 299.01 99.96 C 298.28 91.62 303.83 84.06 311.07 80.46 C 309.50 82.73 307.76 85.12 307.78 88.02 C 307.36 94.07 312.88 99.78 318.98 99.27 C 322.21 99.35 324.90 97.39 327.08 95.23 C 328.90 96.39 330.73 97.57 332.55 98.76 C 328.94 103.78 325.15 108.68 321.52 113.69 C 317.82 112.37 314.16 114.20 312.33 117.49 C 305.04 114.78 299.30 107.87 299.01 99.96 Z" />
<path fill="#fbfbfb" d=" M 326.04 80.51 C 331.05 83.12 335.18 87.29 337.21 92.61 C 336.05 94.12 334.90 95.64 333.76 97.15 C 331.94 95.97 330.11 94.82 328.25 93.71 C 330.10 89.22 329.22 84.16 326.04 80.51 Z" />
<path fill="#fbfbfb" d=" M 360.03 102.77 C 370.13 93.53 386.50 92.76 397.57 100.73 C 393.67 105.31 392.93 112.55 396.91 117.32 C 399.84 121.36 405.04 122.55 409.79 121.98 C 410.33 129.17 408.60 136.57 404.22 142.38 C 393.86 135.84 383.68 129.02 373.22 122.63 C 375.39 118.54 376.47 113.33 373.91 109.15 C 371.37 104.17 365.43 101.63 360.03 102.77 Z" />
<path fill="#fbfbfb" d=" M 400.83 100.84 C 403.36 99.54 406.27 98.55 409.12 99.39 C 414.26 100.42 418.00 105.87 417.09 111.04 C 416.80 114.55 414.17 117.21 411.41 119.09 C 409.98 112.02 406.16 105.66 400.83 100.84 Z" />
<path fill="#fbfbfb" d=" M 334.24 99.82 C 335.45 100.61 336.67 101.40 337.89 102.19 C 336.55 109.27 331.25 114.96 324.67 117.61 C 324.07 116.79 323.47 115.97 322.88 115.15 C 326.68 110.05 330.49 104.96 334.24 99.82 Z" />
<path fill="#fbfbfb" d=" M 399.01 102.34 C 399.75 102.64 400.49 102.95 401.24 103.25 C 398.76 103.33 396.53 105.43 398.06 107.93 C 400.26 109.31 402.62 107.66 402.61 105.17 C 405.86 109.51 408.45 114.36 409.50 119.72 C 406.35 119.67 402.79 120.16 400.31 117.75 C 395.40 114.19 395.23 106.80 399.01 102.34 Z" />
<path fill="#fbfbfb" d=" M 149.98 103.85 C 173.41 112.16 196.85 120.44 220.28 128.74 C 225.16 130.60 230.25 131.97 235.00 134.14 C 237.47 136.34 239.26 139.22 241.48 141.66 C 236.67 146.53 234.87 153.45 235.48 160.16 C 228.19 161.72 220.91 163.27 213.62 164.85 C 210.54 158.59 202.91 154.80 196.15 157.13 C 190.05 158.75 186.15 164.73 185.77 170.83 C 179.81 172.05 173.87 173.31 167.93 174.64 C 161.16 171.64 155.41 166.85 150.04 161.84 C 151.82 159.10 152.58 155.32 150.54 152.50 C 148.48 148.98 143.87 148.39 140.30 149.68 C 137.52 144.41 134.11 139.19 133.35 133.15 C 132.97 127.74 132.78 122.32 132.43 116.91 C 140.07 115.93 146.98 111.01 149.98 103.85 Z" />
<path fill="#fbfbfb" d=" M 358.34 112.86 C 360.00 111.01 362.65 109.31 365.10 110.85 C 368.02 112.20 367.83 115.73 366.99 118.32 C 364.01 116.65 361.16 114.78 358.34 112.86 Z" />
<path fill="#fbfbfb" d=" M 261.41 115.19 C 264.51 116.34 267.78 116.97 271.09 117.12 C 270.49 124.24 268.90 131.26 266.30 137.91 C 264.14 136.95 261.92 136.08 259.57 135.70 C 260.14 128.86 260.88 122.03 261.41 115.19 Z" />
<path fill="#fbfbfb" d=" M 314.34 117.93 C 315.56 116.68 316.91 114.94 318.90 115.26 C 320.57 115.40 321.56 116.88 322.68 117.93 C 319.92 118.36 317.10 118.35 314.34 117.93 Z" />
<path fill="#fbfbfb" d=" M 357.69 115.09 C 360.27 116.46 362.74 118.04 365.04 119.84 C 361.61 120.38 358.53 118.48 357.69 115.09 Z" />
<path fill="#000000" d=" M 404.07 118.79 C 403.96 117.30 403.97 115.03 405.99 114.93 C 408.47 114.20 410.20 119.19 406.96 119.31 C 406.24 119.18 404.79 118.92 404.07 118.79 Z" />
<path fill="#fbfbfb" d=" M 314.06 120.17 C 317.01 120.22 319.97 120.22 322.92 120.14 C 321.82 121.57 320.78 123.47 318.73 123.51 C 316.49 123.74 315.26 121.68 314.06 120.17 Z" />
<path fill="#fbfbfb" d=" M 350.65 119.17 C 352.74 122.82 355.68 126.55 360.11 127.26 C 364.31 128.24 368.57 126.61 371.86 124.02 C 382.31 130.64 392.70 137.35 403.10 144.06 C 399.12 148.54 394.00 152.10 388.12 153.54 C 390.15 150.76 392.29 147.68 392.01 144.05 C 392.12 137.05 385.02 131.04 378.13 132.45 C 372.08 133.22 367.87 139.11 367.92 145.01 C 364.96 145.50 362.00 145.95 359.02 146.25 C 352.26 139.11 348.85 128.92 350.65 119.17 Z" />
<path fill="#fbfbfb" d=" M 129.87 134.95 C 130.01 133.53 130.22 132.13 130.43 130.73 C 131.07 134.44 131.75 138.16 131.85 141.94 C 132.50 155.45 133.51 168.95 133.99 182.47 C 131.84 181.62 130.64 179.24 128.24 178.94 C 128.93 164.28 129.26 149.61 129.87 134.95 Z" />
<path fill="#fbfbfb" d=" M 238.71 135.20 C 241.18 136.14 243.69 136.96 246.15 137.94 C 245.14 138.82 244.06 139.61 243.02 140.45 C 241.59 138.70 240.16 136.94 238.71 135.20 Z" />
<path fill="#fbfbfb" d=" M 376.24 135.10 C 383.44 131.70 392.17 139.42 389.57 146.97 C 387.87 154.10 377.73 156.61 372.94 151.05 C 368.08 146.42 370.04 137.49 376.24 135.10 Z" />
<path fill="#fbfbfb" d=" M 430.56 136.27 C 454.71 133.87 477.98 153.32 481.19 177.12 C 478.20 172.78 473.49 169.17 467.97 169.47 C 463.07 169.14 458.78 171.97 455.62 175.43 C 444.70 168.34 433.73 161.34 422.77 154.31 C 426.48 148.85 429.04 142.68 430.56 136.27 Z" />
<path fill="#fbfbfb" d=" M 244.26 141.86 C 245.78 140.81 247.36 139.82 248.96 138.89 C 265.03 144.42 280.93 150.49 297.10 155.71 C 284.69 157.22 272.35 159.33 259.97 161.08 C 254.76 154.65 249.42 148.33 244.26 141.86 Z" />
<path fill="#fbfbfb" d=" M 133.48 140.73 C 134.91 144.27 136.95 147.51 138.72 150.88 C 136.25 153.90 135.50 158.60 138.35 161.65 C 140.76 164.87 145.27 164.70 148.62 163.21 C 153.52 167.86 158.78 172.21 164.81 175.32 C 155.21 177.26 145.65 179.39 136.07 181.43 C 135.07 167.88 134.91 154.24 133.48 140.73 Z" />
<path fill="#fbfbfb" d=" M 238.72 164.23 C 236.11 157.14 237.46 148.76 242.75 143.23 C 247.78 149.30 252.71 155.46 257.81 161.47 C 251.43 162.26 245.08 163.32 238.72 164.23 Z" />
<path fill="#fbfbfb" d=" M 392.74 158.63 C 396.05 153.57 400.34 149.24 404.84 145.24 C 409.99 148.31 414.94 151.69 420.00 154.90 C 415.05 160.93 409.09 166.24 402.02 169.65 C 398.60 166.26 395.74 162.38 392.74 158.63 Z" />
<path fill="#fbfbfb" d=" M 361.09 148.11 C 363.48 147.71 365.87 147.34 368.27 147.00 C 369.28 149.87 371.01 152.42 373.36 154.36 C 368.99 152.85 364.81 150.88 361.09 148.11 Z" />
<path fill="#fbfbfb" d=" M 303.93 156.43 C 321.69 154.09 339.37 151.19 357.10 148.67 C 358.85 148.23 360.09 149.84 361.43 150.65 C 365.45 153.75 370.29 155.67 375.29 156.46 C 373.68 158.64 373.24 161.27 373.35 163.92 C 372.50 169.17 370.59 174.19 369.33 179.36 C 347.50 171.80 325.85 163.72 303.93 156.43 Z" />
<path fill="#000000" d=" M 402.43 154.50 C 403.94 152.91 405.68 151.55 407.22 149.98 C 407.74 150.64 408.28 151.30 408.82 151.97 C 407.14 153.41 405.59 155.03 403.77 156.28 C 402.78 156.06 401.76 155.68 402.43 154.50 Z" />
<path fill="#fbfbfb" d=" M 141.65 151.08 C 143.97 150.99 146.69 150.76 148.33 152.78 C 150.47 154.81 149.78 157.96 148.90 160.42 C 146.12 157.61 143.54 154.57 141.65 151.08 Z" />
<path fill="#fbfbfb" d=" M 139.74 160.28 C 137.73 158.08 138.34 154.82 140.01 152.63 C 142.24 155.89 144.78 158.90 147.26 161.97 C 144.68 162.35 141.49 162.68 139.74 160.28 Z" />
<path fill="#fbfbfb" d=" M 390.40 156.31 C 389.32 155.04 391.55 153.50 392.70 154.13 C 393.24 155.27 391.60 157.25 390.40 156.31 Z" />
<path fill="#fbfbfb" d=" M 384.49 156.32 C 385.65 156.17 386.82 156.01 387.99 155.86 C 388.68 156.72 389.38 157.59 390.08 158.46 C 387.21 163.60 385.14 169.20 384.03 174.98 C 384.31 175.35 384.85 176.08 385.12 176.44 C 390.65 175.99 395.98 174.41 401.11 172.38 C 405.46 177.72 406.18 185.17 403.99 191.57 C 393.03 187.84 382.13 183.90 371.22 180.01 C 372.45 175.44 373.74 170.88 375.02 166.32 C 377.97 168.97 383.11 169.00 385.43 165.54 C 387.78 162.75 386.72 158.80 384.49 156.32 Z" />
<path fill="#fbfbfb" d=" M 421.65 155.93 C 432.61 162.99 443.59 170.01 454.54 177.08 C 452.00 182.29 452.42 188.57 455.57 193.43 C 450.94 197.26 446.32 201.12 441.70 204.97 C 436.58 203.14 431.43 201.41 426.34 199.53 C 424.21 198.86 423.10 196.79 421.73 195.20 C 415.57 187.19 408.98 179.50 403.08 171.28 C 410.40 167.76 416.60 162.24 421.65 155.93 Z" />
<path fill="#fbfbfb" d=" M 261.56 162.91 C 273.05 161.05 284.60 159.49 296.11 157.69 C 298.14 157.45 300.29 156.80 302.25 157.73 C 324.43 165.60 346.62 173.43 368.80 181.30 C 361.07 209.34 353.25 237.36 345.58 265.42 C 317.70 231.15 289.46 197.16 261.56 162.91 Z" />
<path fill="#fbfbfb" d=" M 377.97 156.86 C 379.93 157.04 382.30 156.68 383.65 158.49 C 386.02 161.01 384.48 165.68 381.01 166.20 C 378.93 166.84 377.28 165.24 375.70 164.20 C 376.22 161.68 376.90 159.20 377.97 156.86 Z" />
<path fill="#fbfbfb" d=" M 191.32 162.30 C 193.56 159.79 196.92 158.90 200.05 158.05 C 199.37 158.32 198.01 158.86 197.33 159.14 C 197.34 160.71 197.44 162.28 197.64 163.85 C 196.98 164.16 196.32 164.47 195.66 164.79 C 194.28 163.55 191.18 162.51 190.44 164.96 C 189.10 167.10 191.31 168.48 192.99 169.23 C 191.24 169.61 189.47 169.97 187.71 170.35 C 188.27 167.44 189.17 164.46 191.32 162.30 Z" />
<path fill="#fbfbfb" d=" M 201.12 157.92 C 205.35 159.39 210.16 161.20 211.55 165.97 C 209.99 163.68 207.22 162.42 205.08 164.95 C 204.38 164.51 203.69 164.06 203.00 163.62 C 203.90 161.34 203.66 158.93 201.12 157.92 Z" />
<path fill="#fbfbfb" d=" M 390.85 162.37 C 389.88 159.31 394.70 161.34 393.63 163.39 C 392.51 163.65 391.58 163.31 390.85 162.37 Z" />
<path fill="#fbfbfb" d=" M 213.58 167.10 C 221.01 165.03 228.64 163.78 236.15 162.05 C 236.35 162.89 236.56 163.73 236.77 164.57 C 230.20 165.43 223.67 166.51 217.11 167.44 C 215.91 167.70 214.71 167.51 213.58 167.10 Z" />
<path fill="#fbfbfb" d=" M 239.70 166.13 C 246.13 165.08 252.61 164.24 259.05 163.18 C 287.79 197.90 316.27 232.84 344.94 267.63 C 342.85 275.02 340.89 282.45 338.77 289.83 C 338.52 291.05 337.50 291.86 336.63 292.66 C 315.21 310.56 293.76 328.42 272.34 346.33 C 270.69 347.66 269.16 349.18 267.30 350.21 C 265.23 350.89 263.03 350.93 260.90 351.25 C 239.97 353.85 219.04 356.38 198.13 359.04 C 180.10 325.34 162.09 291.62 144.11 257.89 C 174.77 230.62 205.46 203.38 236.15 176.15 C 238.28 174.01 241.54 172.82 242.59 169.79 C 241.61 168.57 240.65 167.35 239.70 166.13 Z" />
<path fill="#fbfbfb" d=" M 389.57 163.97 C 393.58 165.16 397.23 167.34 399.92 170.58 C 395.53 172.51 390.89 173.79 386.13 174.36 C 386.98 170.81 388.06 167.31 389.57 163.97 Z" />
<path fill="#fbfbfb" d=" M 194.67 168.80 C 196.78 165.37 201.15 164.20 204.52 166.61 C 201.29 167.56 197.98 168.20 194.67 168.80 Z" />
<path fill="#fbfbfb" d=" M 214.95 169.81 C 222.48 168.60 230.05 167.57 237.59 166.39 C 238.43 167.59 239.28 168.78 240.14 169.98 C 231.57 176.97 220.62 180.33 209.87 182.15 C 213.08 178.84 215.00 174.45 214.95 169.81 Z" />
<path fill="#fbfbfb" d=" M 194.45 170.99 C 198.23 170.14 202.02 169.33 205.83 168.59 C 206.33 171.36 205.81 174.73 202.92 175.97 C 199.25 178.18 194.83 174.91 194.45 170.99 Z" />
<path fill="#fbfbfb" d=" M 208.25 170.80 C 209.80 170.55 211.35 170.30 212.90 170.07 C 213.18 175.45 209.92 180.30 205.14 182.60 C 205.04 183.12 204.84 184.18 204.74 184.70 C 214.11 183.80 223.46 181.74 231.89 177.45 C 202.16 203.47 172.72 229.85 143.18 256.09 C 141.84 253.46 139.77 250.97 139.76 247.87 C 138.59 226.39 137.30 204.90 136.22 183.41 C 145.79 181.35 155.37 179.33 164.95 177.27 C 167.29 176.37 169.44 177.85 171.54 178.69 C 179.32 182.22 187.79 184.01 196.28 184.61 C 196.35 181.96 193.46 181.62 191.94 180.11 C 189.56 178.19 188.65 175.19 187.79 172.39 C 189.37 172.04 190.95 171.71 192.53 171.37 C 193.05 175.80 197.36 179.50 201.87 178.43 C 205.55 177.82 207.88 174.32 208.25 170.80 Z" />
<path fill="#fbfbfb" d=" M 462.37 172.56 C 469.65 168.99 479.34 173.81 480.64 181.85 C 482.30 188.86 476.98 196.41 469.88 197.33 C 462.85 198.66 455.50 193.01 454.92 185.91 C 454.14 180.41 457.43 174.90 462.37 172.56 Z" />
<path fill="#fbfbfb" d=" M 170.40 176.09 C 175.53 175.01 180.66 173.91 185.79 172.81 C 186.68 176.29 188.41 179.46 190.82 182.13 C 183.78 181.03 176.88 179.08 170.40 176.09 Z" />
<path fill="#fbfbfb" d=" M 487.47 178.62 C 491.98 176.34 497.65 181.02 496.21 185.87 C 495.46 190.09 489.86 192.29 486.49 189.62 C 482.45 187.19 483.11 180.35 487.47 178.62 Z" />
<path fill="#fbfbfb" d=" M 406.52 178.86 C 411.22 185.39 416.38 191.59 421.43 197.86 C 416.28 195.96 411.10 194.14 405.92 192.35 C 407.16 187.96 407.68 183.32 406.52 178.86 Z" />
<path fill="#fbfbfb" d=" M 95.62 190.06 C 96.50 186.86 98.07 183.92 100.07 181.28 C 101.66 183.87 103.74 186.09 106.18 187.89 C 102.63 188.50 99.13 189.31 95.62 190.06 Z" />
<path fill="#fbfbfb" d=" M 370.68 181.97 C 381.56 185.79 392.43 189.67 403.31 193.50 C 400.23 199.05 395.17 203.23 389.11 205.12 C 388.96 205.56 388.65 206.42 388.49 206.86 C 393.34 216.88 401.75 225.02 411.66 230.04 C 392.91 245.76 374.05 261.34 355.34 277.10 C 352.74 273.66 349.33 270.66 347.30 266.91 C 354.88 238.55 362.90 210.28 370.68 181.97 Z" />
<path fill="#fbfbfb" d=" M 13.86 207.54 C 15.97 199.64 18.46 191.84 21.29 184.17 C 25.81 187.73 30.33 191.27 34.90 194.76 C 33.94 197.71 33.41 200.90 31.86 203.62 C 25.90 205.10 19.85 206.18 13.86 207.54 Z" />
<path fill="#fbfbfb" d=" M 128.01 185.16 C 128.92 184.97 130.75 184.60 131.66 184.41 C 136.48 192.51 134.41 203.55 127.19 209.55 C 127.48 201.42 127.90 193.29 128.01 185.16 Z" />
<path fill="#fbfbfb" d=" M 108.92 189.38 C 114.85 191.08 121.33 189.92 126.05 185.88 C 126.05 191.99 125.31 198.10 125.66 204.21 C 125.84 196.58 116.69 191.52 110.12 194.90 C 103.59 197.55 102.00 206.23 105.47 211.92 C 99.57 207.98 95.21 201.63 95.13 194.34 C 94.49 194.87 93.85 195.40 93.21 195.93 C 94.00 204.47 100.03 212.36 108.30 214.86 C 109.54 215.56 110.48 215.24 111.10 213.91 C 108.88 212.07 106.25 210.18 105.86 207.08 C 104.31 201.52 109.36 195.59 115.02 195.85 C 119.42 195.88 123.36 199.59 123.87 203.91 C 124.50 207.33 122.59 210.54 120.16 212.77 C 119.78 212.15 119.01 210.91 118.63 210.30 C 120.86 207.72 121.92 203.47 119.14 200.89 C 115.77 196.99 108.55 199.81 108.73 204.96 C 108.44 209.26 113.01 211.94 116.89 211.14 C 119.29 216.17 122.55 220.82 124.49 226.06 C 124.66 231.32 124.19 236.58 124.08 241.84 C 117.98 235.94 110.27 231.84 101.91 230.30 C 101.04 227.36 99.24 224.12 95.86 223.73 C 91.59 222.76 87.86 226.31 87.17 230.35 C 86.28 230.51 85.40 230.68 84.51 230.86 C 72.29 221.30 60.05 211.77 47.75 202.32 C 62.99 199.06 78.24 195.81 93.49 192.54 L 92.95 194.60 C 93.72 194.45 95.28 194.13 96.05 193.97 L 94.46 193.06 C 98.92 190.77 104.07 190.35 108.92 189.38 Z" />
<path fill="#fbfbfb" d=" M 469.95 199.31 C 474.73 198.84 478.58 195.55 481.21 191.74 C 479.92 200.35 476.21 208.50 470.68 215.21 C 461.71 212.10 452.78 208.90 443.84 205.72 C 448.25 202.22 452.49 198.52 456.81 194.91 C 460.42 197.99 465.10 200.20 469.95 199.31 Z" />
<path fill="#fbfbfb" d=" M 405.19 194.17 C 410.33 196.00 415.48 197.81 420.64 199.61 C 421.91 200.11 423.34 200.50 424.24 201.62 C 427.24 205.10 429.97 208.80 432.84 212.38 C 426.33 217.78 419.91 223.29 413.30 228.57 C 403.57 224.03 395.65 216.16 390.53 206.78 C 396.89 204.74 402.21 200.13 405.19 194.17 Z" />
<path fill="#fbfbfb" d=" M 37.45 196.79 C 39.42 198.32 41.39 199.84 43.42 201.29 C 40.76 201.77 38.11 202.34 35.47 202.93 C 36.16 200.89 36.82 198.85 37.45 196.79 Z" />
<path fill="#fbfbfb" d=" M 112.55 201.70 C 114.96 199.77 118.96 201.93 118.86 204.94 C 119.29 208.20 114.80 210.62 112.34 208.41 C 110.09 206.85 110.17 203.09 112.55 201.70 Z" />
<path fill="#fbfbfb" d=" M 127.21 212.29 C 130.58 209.03 133.92 205.52 135.31 200.90 C 135.79 216.10 136.96 231.28 137.69 246.47 C 134.61 239.09 129.94 232.47 126.90 225.10 C 126.61 220.84 126.93 216.54 127.21 212.29 Z" />
<path fill="#fbfbfb" d=" M 427.01 201.90 C 431.34 203.40 435.63 205.00 440.00 206.41 C 438.09 207.95 436.22 209.53 434.34 211.10 C 431.97 207.97 429.51 204.93 427.01 201.90 Z" />
<path fill="#fbfbfb" d=" M 34.82 205.09 C 38.27 204.33 41.73 203.62 45.18 202.85 C 57.68 212.29 69.85 222.17 82.41 231.54 C 71.49 234.68 62.12 242.77 57.05 252.90 C 57.16 253.30 57.37 254.09 57.48 254.49 C 62.19 256.26 66.79 259.05 68.95 263.82 C 74.18 273.14 68.52 286.49 57.88 288.66 C 57.63 289.12 57.13 290.04 56.87 290.50 C 62.35 301.10 72.25 309.58 83.91 312.46 C 96.98 315.73 111.89 312.87 121.85 303.51 C 121.71 313.15 121.04 322.78 121.00 332.43 C 116.74 329.94 111.78 328.49 106.82 329.10 C 97.44 329.91 89.16 337.71 87.86 347.04 C 87.95 347.78 88.13 349.28 88.22 350.03 C 88.56 349.94 89.23 349.78 89.57 349.70 C 89.66 341.72 95.31 335.21 102.17 331.80 C 100.39 333.83 98.56 336.09 98.43 338.91 C 97.56 344.59 102.08 350.35 107.79 350.87 C 110.75 351.44 113.54 349.97 116.10 348.71 C 117.43 350.10 119.03 351.31 120.03 352.98 C 120.18 357.63 119.70 362.27 119.72 366.92 C 118.25 367.69 116.78 368.45 115.29 369.18 C 113.72 367.12 111.84 364.67 108.90 364.98 C 106.12 364.87 104.36 367.15 102.90 369.16 C 96.75 366.80 91.44 361.57 90.12 354.98 C 89.44 353.86 90.38 351.35 88.81 351.01 L 88.28 351.21 C 87.17 352.56 87.94 354.27 88.20 355.80 C 89.97 363.01 95.78 368.85 102.76 371.18 C 103.43 374.16 105.56 377.27 108.98 377.08 C 112.47 377.39 114.64 374.19 115.49 371.23 C 116.85 371.06 118.21 370.90 119.57 370.75 C 118.98 384.79 118.49 398.80 117.96 412.83 C 89.89 389.97 61.93 366.99 33.89 344.11 C 31.58 342.59 31.55 339.60 30.83 337.20 C 20.60 293.82 21.89 247.76 34.82 205.09 Z" />
<path fill="#fbfbfb" d=" M 13.65 209.73 C 19.52 208.17 25.53 207.20 31.44 205.78 C 18.74 249.14 17.62 295.81 28.38 339.69 C 21.74 333.95 14.75 328.62 8.11 322.89 C 2.37 287.55 3.52 251.10 11.66 216.22 C 12.27 214.06 12.40 211.63 13.65 209.73 Z" />
<path fill="#fbfbfb" d=" M 435.63 212.60 C 437.79 210.81 439.95 209.02 442.14 207.25 C 451.17 210.43 460.20 213.65 469.24 216.82 C 463.76 222.68 457.05 227.46 449.47 230.16 C 444.90 224.27 440.16 218.51 435.63 212.60 Z" />
<path fill="#fbfbfb" d=" M 125.03 213.30 C 125.04 216.21 124.92 219.12 124.75 222.03 C 123.67 219.60 122.40 217.26 121.17 214.91 C 122.46 214.38 123.75 213.84 125.03 213.30 Z" />
<path fill="#fbfbfb" d=" M 415.36 229.52 C 421.60 224.31 427.88 219.14 434.09 213.88 C 438.53 219.55 443.01 225.19 447.50 230.82 C 436.98 233.71 425.60 233.32 415.36 229.52 Z" />
<path fill="#fbfbfb" d=" M 450.78 231.78 C 458.79 228.93 465.54 223.58 471.39 217.55 C 490.82 224.54 510.33 231.32 529.77 238.28 C 537.22 284.30 531.60 332.31 513.82 375.41 C 509.32 374.71 504.26 375.54 501.28 379.30 C 496.41 384.50 497.91 393.30 503.59 397.31 C 487.08 428.60 463.91 456.31 436.17 478.25 C 405.04 502.96 367.94 519.98 329.03 527.94 C 295.78 534.64 261.21 534.65 227.96 527.94 C 202.08 522.69 177.08 513.30 154.00 500.49 C 153.01 486.14 152.47 471.77 151.44 457.43 C 155.96 455.16 160.61 453.18 165.32 451.35 C 163.61 453.60 159.99 454.37 159.73 457.47 C 169.99 456.39 179.93 451.64 186.70 443.77 C 190.29 438.93 196.72 438.04 201.80 435.42 C 206.94 440.51 211.82 445.85 217.02 450.89 C 215.58 458.79 215.51 467.01 217.14 474.88 C 218.69 475.97 220.47 475.09 222.14 474.91 C 230.25 473.35 239.03 478.10 242.25 485.71 C 245.74 493.04 243.53 502.26 237.53 507.61 C 237.43 508.11 237.23 509.12 237.13 509.62 C 247.38 518.42 260.40 524.14 273.93 524.96 C 274.94 523.34 273.01 522.72 272.11 521.98 C 267.12 519.15 264.86 512.40 267.19 507.15 C 268.01 504.85 269.73 503.07 271.49 501.44 C 273.49 503.46 275.84 505.69 278.95 505.33 C 281.72 505.31 283.67 503.18 285.53 501.43 C 288.52 504.10 290.90 507.80 290.74 511.95 C 290.45 515.64 288.79 519.49 285.55 521.51 C 284.27 522.42 282.62 523.16 282.70 525.06 C 296.34 524.14 309.50 518.55 319.85 509.65 C 319.76 509.13 319.59 508.09 319.50 507.57 C 315.37 503.95 312.86 498.52 313.20 493.00 C 312.98 484.09 320.35 475.92 329.12 474.82 C 332.73 473.95 336.30 475.75 339.90 475.17 C 342.52 462.79 340.86 449.90 336.27 438.19 C 339.06 435.56 340.61 431.16 338.23 427.74 C 336.26 424.26 331.86 423.79 328.34 424.72 C 323.00 417.61 316.05 411.87 308.33 407.50 C 314.05 386.75 319.80 366.00 325.54 345.25 C 350.68 342.13 375.82 338.98 400.97 335.92 C 406.07 341.99 411.00 348.20 416.13 354.26 C 408.17 353.43 400.11 354.58 392.58 357.20 C 389.81 353.66 385.73 350.69 381.04 350.95 C 373.44 350.44 366.60 357.56 367.00 365.09 C 367.00 368.18 368.33 371.03 370.06 373.52 C 363.67 381.95 359.49 392.16 358.83 402.76 C 360.43 404.63 363.03 403.66 365.15 404.11 C 372.90 405.32 379.56 412.10 380.21 420.00 C 380.94 426.10 378.34 432.60 373.39 436.30 C 372.47 437.18 371.09 437.80 370.84 439.18 C 371.06 440.41 372.11 441.18 372.89 442.07 C 378.14 447.53 384.48 452.05 391.57 454.79 C 393.65 453.80 393.76 451.35 394.72 449.53 C 397.83 442.76 405.60 438.77 412.92 439.47 C 419.06 440.32 424.86 444.15 427.41 449.90 C 428.22 451.65 428.41 453.90 430.41 454.79 C 443.79 449.54 454.87 438.44 459.83 424.90 C 467.89 404.88 461.60 380.19 444.90 366.50 C 443.54 368.44 445.27 370.34 445.63 372.29 C 447.11 378.58 442.38 385.38 435.96 386.20 C 428.15 387.98 420.44 379.86 422.47 372.14 C 423.62 365.55 430.80 361.62 437.12 362.94 C 437.37 362.58 437.86 361.85 438.11 361.49 C 432.21 357.86 425.56 355.87 418.90 354.27 C 413.35 348.33 408.60 341.67 403.22 335.58 C 413.85 334.40 424.44 332.83 435.08 331.76 C 438.41 333.51 441.40 335.90 444.91 337.36 C 455.62 341.75 468.15 341.74 478.75 337.02 C 487.44 333.01 494.56 326.00 499.07 317.60 C 498.88 317.11 498.48 316.14 498.29 315.65 C 493.58 314.30 489.36 311.21 487.11 306.80 C 483.46 300.22 485.00 291.50 490.13 286.14 C 492.46 283.72 495.67 282.57 498.77 281.48 C 499.16 278.95 497.39 276.95 496.16 274.95 C 490.59 266.93 482.28 260.65 472.78 258.14 C 471.79 257.90 471.00 257.36 470.42 256.53 C 463.86 248.29 457.35 240.01 450.78 231.78 Z" />
<path fill="#fbfbfb" d=" M 89.11 230.10 C 90.12 228.04 91.40 225.68 94.02 225.58 C 96.97 225.03 98.92 227.73 99.95 230.09 C 96.34 229.73 92.71 229.75 89.11 230.10 Z" />
<path fill="#fbfbfb" d=" M 126.49 228.77 C 129.92 236.27 134.39 243.27 137.85 250.75 C 138.17 253.77 138.37 256.82 138.39 259.86 C 134.37 264.40 129.39 268.04 124.96 272.19 C 125.33 267.32 125.07 262.41 125.72 257.58 C 127.18 255.80 129.93 255.57 131.94 254.49 C 131.68 250.31 128.45 247.10 125.96 243.99 C 126.19 238.91 126.40 233.84 126.49 228.77 Z" />
<path fill="#fbfbfb" d=" M 89.37 232.17 C 92.83 231.67 96.34 231.65 99.81 232.18 C 98.39 234.02 96.65 236.37 93.96 235.73 C 91.75 235.73 90.54 233.72 89.37 232.17 Z" />
<path fill="#fbfbfb" d=" M 356.51 278.65 C 375.62 262.77 394.62 246.77 413.76 230.94 C 418.51 232.84 423.52 234.15 428.64 234.44 C 422.79 237.88 424.56 247.75 431.13 249.13 C 436.56 250.95 442.47 245.70 441.58 240.12 C 441.43 237.80 439.92 235.96 438.32 234.42 C 441.89 234.19 445.37 233.38 448.83 232.53 C 453.72 238.47 458.24 244.69 463.29 250.49 C 458.94 249.77 454.89 252.70 454.20 257.03 C 441.34 259.47 430.04 267.97 423.96 279.54 C 424.08 280.03 424.33 281.02 424.45 281.52 C 429.59 282.95 434.15 286.47 436.26 291.45 C 440.88 300.80 435.06 313.58 424.62 315.58 C 424.43 316.07 424.05 317.03 423.86 317.52 C 426.40 322.12 429.51 326.39 433.42 329.92 C 422.92 331.12 412.45 332.49 401.96 333.80 C 386.65 315.55 371.72 296.98 356.51 278.65 Z" />
<path fill="#fbfbfb" d=" M 87.25 232.21 C 87.77 232.85 87.77 232.85 87.25 232.21 Z" />
<path fill="#fbfbfb" d=" M 59.13 253.06 C 64.38 243.43 73.53 235.67 84.30 233.11 C 96.02 242.31 107.81 251.42 119.60 260.53 C 116.22 266.03 115.18 272.82 117.35 278.97 C 112.74 283.09 108.07 287.13 103.50 291.29 C 100.56 289.14 97.05 287.38 93.28 287.94 C 86.54 288.36 81.01 295.09 81.94 301.81 C 82.07 305.89 84.93 309.12 87.90 311.61 C 84.27 310.34 80.42 309.64 77.00 307.83 C 69.38 304.07 63.12 297.82 59.02 290.40 C 63.02 289.07 66.51 286.56 69.12 283.27 C 70.47 285.52 74.03 285.63 74.99 283.03 C 76.04 280.66 73.56 279.10 71.59 278.73 C 72.12 276.93 72.54 275.11 72.82 273.26 C 73.83 274.08 74.63 275.41 76.09 275.41 C 79.18 275.78 81.15 271.72 79.31 269.35 C 77.39 267.19 73.49 268.00 72.52 270.73 C 72.85 268.73 72.28 266.78 71.77 264.87 C 73.69 264.26 76.14 262.55 74.87 260.25 C 73.82 257.77 70.42 258.27 69.18 260.32 C 66.69 256.90 63.13 254.42 59.13 253.06 Z" />
<path fill="#fbfbfb" d=" M 92.91 237.57 C 96.90 238.56 100.39 235.76 101.77 232.19 C 110.12 233.96 117.87 238.14 123.74 244.35 C 124.22 248.39 123.63 252.59 123.46 256.68 C 122.57 257.46 121.68 258.24 120.79 259.02 C 111.49 251.89 102.43 244.41 92.91 237.57 Z" />
<path fill="#fbfbfb" d=" M 431.11 235.21 C 435.65 233.35 440.86 237.90 439.50 242.61 C 438.63 247.15 432.43 249.08 429.10 245.90 C 425.54 243.00 426.79 236.67 431.11 235.21 Z" />
<path fill="#fbfbfb" d=" M 533.04 239.42 C 538.83 241.45 544.61 243.51 550.40 245.55 C 555.86 289.06 550.46 333.89 534.92 374.90 C 521.29 411.34 499.79 444.81 472.18 472.23 C 444.27 500.31 410.11 522.09 372.92 535.66 C 308.61 559.60 235.21 557.90 172.10 530.93 C 166.45 528.43 160.59 526.23 155.33 522.95 C 154.66 516.64 154.58 510.28 154.14 503.95 C 189.29 523.26 228.95 534.46 269.06 535.75 C 307.50 537.27 346.24 529.90 381.46 514.44 C 434.57 491.54 479.30 449.91 506.16 398.71 C 511.97 400.25 518.76 397.84 521.20 392.11 C 523.89 386.61 521.36 380.02 516.52 376.68 C 534.41 333.55 540.05 285.56 533.04 239.42 Z" />
<path fill="#fbfbfb" d=" M 125.66 254.99 C 125.74 252.31 125.70 249.62 126.06 246.96 C 127.48 248.99 128.76 251.09 130.02 253.22 C 128.56 253.80 127.11 254.39 125.66 254.99 Z" />
<path fill="#fbfbfb" d=" M 455.84 256.68 C 457.25 254.63 459.04 251.93 461.97 252.49 C 464.56 252.40 465.86 254.90 466.87 256.87 C 463.19 256.60 459.51 256.73 455.84 256.68 Z" />
<path fill="#fbfbfb" d=" M 456.26 259.13 C 459.70 258.45 463.24 258.46 466.68 259.12 C 465.37 260.57 464.18 262.59 461.98 262.65 C 459.41 263.06 457.59 261.00 456.26 259.13 Z" />
<path fill="#fbfbfb" d=" M 426.08 279.94 C 431.69 269.18 442.35 261.49 454.19 259.06 C 455.61 262.42 458.98 265.46 462.88 264.46 C 466.02 264.08 467.55 261.12 469.01 258.70 C 476.57 266.52 482.68 275.63 489.67 283.95 C 485.23 288.39 482.35 294.69 483.25 301.05 C 484.07 308.56 489.71 315.11 496.92 317.31 C 491.20 328.11 480.48 335.89 468.52 338.26 C 471.45 335.61 474.12 332.22 474.12 328.07 C 474.84 320.54 467.52 313.71 460.07 314.81 C 453.47 315.31 448.61 321.57 448.59 327.99 C 444.44 328.52 440.30 329.05 436.14 329.52 C 431.89 326.27 428.66 321.92 425.99 317.34 C 429.93 315.78 433.69 313.48 436.10 309.91 C 437.24 311.30 439.45 312.85 441.02 311.10 C 443.52 309.09 441.47 305.27 438.39 305.76 C 439.80 301.21 440.41 296.12 438.56 291.59 C 440.23 291.11 442.54 290.21 442.05 288.01 C 442.14 284.75 437.40 284.73 436.11 287.17 C 433.63 283.73 430.06 281.32 426.08 279.94 Z" />
<path fill="#fbfbfb" d=" M 118.97 277.55 C 116.96 270.93 118.92 263.64 123.55 258.60 C 123.26 263.71 123.12 268.83 122.97 273.96 C 121.64 275.16 120.30 276.35 118.97 277.55 Z" />
<path fill="#fbfbfb" d=" M 140.66 263.80 C 140.24 261.95 141.05 260.31 142.28 258.97 C 160.40 292.30 178.06 325.87 195.99 359.30 C 179.42 361.29 162.87 363.41 146.30 365.42 C 144.54 331.54 142.53 297.67 140.66 263.80 Z" />
<path fill="#fbfbfb" d=" M 473.26 260.28 C 483.34 263.42 492.02 270.72 496.93 280.06 C 494.96 280.83 493.02 281.68 491.22 282.80 C 485.26 275.27 479.41 267.65 473.26 260.28 Z" />
<path fill="#fbfbfb" d=" M 125.08 274.91 C 129.43 270.63 134.20 266.77 138.71 262.66 C 140.38 297.01 142.56 331.34 144.36 365.68 C 141.78 366.00 139.19 366.30 136.61 366.63 C 133.92 364.22 131.62 361.43 129.06 358.89 C 129.85 356.21 130.41 353.47 130.69 350.69 L 128.66 350.56 C 128.43 352.88 128.04 355.18 127.53 357.46 C 125.74 355.63 123.94 353.82 122.19 351.95 C 122.34 346.74 122.55 341.53 122.77 336.32 C 126.25 340.23 128.66 345.12 128.64 350.44 L 130.67 350.32 C 130.49 344.02 127.66 338.01 122.86 333.92 C 123.28 323.29 123.34 312.63 124.12 302.02 C 126.89 298.18 130.31 294.73 132.24 290.32 C 130.70 287.31 126.17 287.89 124.61 284.88 C 124.72 281.56 124.53 278.20 125.08 274.91 Z" />
<path fill="#fbfbfb" d=" M 346.43 269.41 C 348.84 272.43 351.32 275.41 353.76 278.42 C 349.46 281.96 345.13 285.46 340.96 289.16 C 342.90 282.61 344.71 276.02 346.43 269.41 Z" />
<path fill="#fbfbfb" d=" M 119.83 279.54 C 120.79 278.58 121.76 277.64 122.72 276.71 C 122.76 279.04 122.76 281.38 122.72 283.72 C 121.74 282.33 120.78 280.94 119.83 279.54 Z" />
<path fill="#fbfbfb" d=" M 340.32 292.41 C 344.98 287.99 350.12 284.07 355.03 279.92 C 369.79 298.00 384.71 315.95 399.42 334.08 C 374.99 337.11 350.56 340.16 326.13 343.14 C 330.89 326.25 335.26 309.21 340.32 292.41 Z" />
<path fill="#fbfbfb" d=" M 104.80 292.76 C 109.29 288.80 113.75 284.80 118.24 280.85 C 119.77 283.52 123.21 285.60 122.46 289.09 C 122.25 293.03 122.16 296.98 121.97 300.92 C 116.28 306.53 108.82 309.73 101.16 311.59 C 107.38 307.57 109.09 298.81 104.80 292.76 Z" />
<path fill="#fbfbfb" d=" M 124.47 287.75 C 126.24 288.81 128.08 289.73 130.00 290.51 C 128.24 293.45 126.31 296.30 124.08 298.92 C 124.24 295.20 124.26 291.47 124.47 287.75 Z" />
<path fill="#fbfbfb" d=" M 90.38 290.66 C 97.97 287.05 107.32 294.87 104.96 302.97 C 103.52 310.92 92.41 314.05 86.98 308.13 C 81.60 303.15 83.54 293.26 90.38 290.66 Z" />
<path fill="#000000" d=" M 91.29 294.23 C 96.16 291.44 102.91 296.34 101.48 301.83 C 100.78 306.65 94.48 309.40 90.56 306.40 C 86.15 303.72 86.61 296.36 91.29 294.23 Z" />
<path fill="#fbfbfb" d=" M 271.02 349.98 C 293.22 331.39 315.60 313.01 337.64 294.23 C 332.95 310.60 328.59 327.05 323.94 343.43 C 306.30 345.62 288.66 347.81 271.02 349.98 Z" />
<path fill="#000000" d=" M 440.05 299.81 C 438.93 297.18 441.29 294.51 444.02 295.00 C 447.86 295.24 447.94 302.05 444.03 302.21 C 442.13 302.81 440.86 301.25 440.05 299.81 Z" />
<path fill="#fbfbfb" d=" M 92.12 296.05 C 95.13 294.28 99.25 296.49 99.66 299.90 C 100.43 304.15 94.67 307.61 91.42 304.55 C 88.48 302.52 88.97 297.63 92.12 296.05 Z" />
<path fill="#fbfbfb" d=" M 457.40 317.46 C 464.69 314.13 473.72 321.18 472.03 329.09 C 471.21 337.08 460.28 341.10 454.51 335.50 C 448.40 330.75 450.22 320.14 457.40 317.46 Z" />
<path fill="#000000" d=" M 459.40 320.64 C 464.31 318.84 469.75 323.90 468.39 328.93 C 467.48 333.88 460.78 336.31 457.01 332.87 C 452.60 329.65 454.12 321.95 459.40 320.64 Z" />
<path fill="#fbfbfb" d=" M 458.43 323.25 C 461.71 320.56 467.24 323.66 466.56 327.89 C 466.38 331.71 461.41 333.95 458.45 331.51 C 455.60 329.65 455.74 325.18 458.43 323.25 Z" />
<path fill="#fbfbfb" d=" M 8.58 325.86 C 14.95 331.31 21.54 336.49 28.00 341.84 C 29.37 342.76 29.57 344.51 30.04 345.96 C 43.25 395.05 71.44 439.95 109.97 473.12 C 104.39 475.51 98.85 477.99 93.25 480.34 C 48.99 440.05 18.95 384.77 8.58 325.86 Z" />
<path fill="#fbfbfb" d=" M 438.01 331.34 C 441.59 330.84 445.19 330.41 448.78 329.95 C 449.89 333.18 451.86 335.99 454.42 338.24 C 448.56 336.94 443.04 334.60 438.01 331.34 Z" />
<path fill="#fbfbfb" d=" M 105.47 332.28 C 110.21 330.02 116.33 333.01 117.48 338.11 C 118.78 342.58 115.70 347.55 111.23 348.62 C 106.64 349.98 101.30 346.61 100.59 341.87 C 99.71 338.02 101.93 333.91 105.47 332.28 Z" />
<path fill="#fbfbfb" d=" M 116.05 331.95 C 117.62 332.93 119.32 333.73 120.71 334.97 C 120.79 340.03 120.38 345.08 120.22 350.14 C 119.30 349.20 118.37 348.26 117.44 347.34 C 120.87 342.67 120.55 335.81 116.05 331.95 Z" />
<path fill="#fbfbfb" d=" M 33.09 345.92 C 61.30 369.21 89.71 392.28 118.02 415.45 C 117.15 433.82 116.81 452.21 115.91 470.58 C 115.18 470.87 113.70 471.45 112.96 471.74 C 74.52 439.05 46.42 394.57 33.09 345.92 Z" />
<path fill="#fbfbfb" d=" M 272.55 351.78 C 289.52 349.73 306.47 347.57 323.43 345.50 C 317.77 365.86 312.11 386.22 306.55 406.61 C 303.97 405.40 301.38 404.20 298.65 403.37 C 297.05 403.73 296.76 405.28 296.34 406.62 C 294.35 413.78 287.45 419.11 280.11 419.70 C 271.86 420.49 263.38 415.15 260.85 407.20 C 260.25 405.75 260.18 403.80 258.36 403.37 C 252.18 405.29 246.50 408.54 241.25 412.29 C 237.64 414.84 234.73 418.24 231.05 420.71 C 226.44 412.09 221.82 403.48 217.26 394.84 C 233.78 381.16 250.17 367.33 266.68 353.65 C 268.23 352.05 270.51 352.07 272.55 351.78 Z" />
<path fill="#fbfbfb" d=" M 199.10 360.87 C 220.94 358.22 242.76 355.47 264.59 352.78 C 248.53 366.24 232.37 379.56 216.36 393.09 C 210.52 382.40 204.84 371.62 199.10 360.87 Z" />
<path fill="#fbfbfb" d=" M 369.74 360.53 C 371.56 355.65 376.78 352.20 382.03 352.98 C 385.62 353.07 388.51 355.49 390.79 358.03 C 389.41 358.64 388.04 359.27 386.68 359.89 C 384.11 357.78 380.40 356.31 377.32 358.28 C 373.49 360.14 372.64 365.10 374.40 368.71 C 373.37 369.86 372.34 371.01 371.30 372.15 C 369.30 368.67 368.10 364.40 369.74 360.53 Z" />
<path fill="#fbfbfb" d=" M 122.07 354.57 C 123.62 356.21 125.13 357.90 126.55 359.66 C 125.06 361.75 123.42 363.73 121.68 365.61 C 121.81 361.93 122.03 358.25 122.07 354.57 Z" />
<path fill="#fbfbfb" d=" M 393.67 358.97 C 401.33 356.19 409.60 355.48 417.68 356.32 C 419.98 358.97 422.17 361.71 424.41 364.42 C 419.65 369.31 418.67 377.54 423.08 382.97 C 427.83 389.75 438.58 390.07 444.10 384.06 C 447.36 380.74 448.32 375.83 447.63 371.34 C 452.45 377.13 456.53 383.54 458.99 390.71 C 460.57 396.94 461.88 403.38 461.19 409.85 C 461.03 413.68 459.89 417.35 459.48 421.15 C 460.75 415.48 454.34 410.28 449.15 413.03 C 444.58 414.90 443.38 421.63 447.12 424.88 C 450.03 428.00 455.24 427.44 457.96 424.34 C 453.25 436.99 443.05 447.22 430.76 452.61 C 428.62 445.32 422.57 439.13 414.96 437.82 C 404.78 435.39 393.83 442.54 391.39 452.60 C 384.36 449.66 378.18 445.01 373.04 439.43 C 376.74 436.63 379.86 433.01 381.36 428.57 C 383.31 429.52 385.32 429.19 387.18 428.17 C 387.61 425.23 385.66 422.23 382.43 423.49 C 382.36 420.53 382.00 417.57 381.08 414.76 C 381.62 416.93 383.42 419.37 385.97 418.31 C 389.34 417.52 389.42 411.98 385.98 411.23 C 383.61 410.16 381.78 412.11 380.74 413.99 C 379.89 412.43 378.98 410.92 377.99 409.46 C 379.79 408.42 381.57 406.20 379.89 404.22 C 378.33 401.64 374.55 403.04 374.08 405.79 C 370.28 402.96 365.57 401.70 360.87 401.82 C 361.68 392.08 365.66 382.88 371.35 375.01 C 374.14 377.07 377.42 378.64 380.97 378.52 C 387.85 378.61 394.22 372.75 394.56 365.86 C 394.82 363.52 394.16 361.22 393.67 358.97 Z" />
<path fill="#fbfbfb" d=" M 420.74 356.79 C 424.87 357.65 428.79 359.25 432.80 360.55 C 430.43 361.20 428.16 362.11 425.95 363.18 C 424.21 361.05 422.46 358.93 420.74 356.79 Z" />
<path fill="#fbfbfb" d=" M 378.02 360.11 C 380.23 358.54 382.94 359.61 385.00 360.87 C 381.76 362.86 378.67 365.07 375.79 367.55 C 375.22 364.89 375.35 361.59 378.02 360.11 Z" />
<path fill="#fbfbfb" d=" M 387.78 361.48 C 389.14 360.91 390.52 360.36 391.90 359.82 C 393.23 364.36 392.82 369.79 389.09 373.11 C 384.87 377.73 377.44 377.34 372.73 373.66 C 373.73 372.53 374.73 371.41 375.76 370.32 C 378.79 372.42 383.34 372.79 386.00 369.87 C 388.43 367.79 388.30 364.34 387.78 361.48 Z" />
<path fill="#fbfbfb" d=" M 121.23 368.51 C 123.80 366.25 126.19 363.78 128.05 360.90 C 130.05 362.91 132.06 364.92 134.08 366.92 C 129.80 367.48 125.52 368.03 121.23 368.51 Z" />
<path fill="#fbfbfb" d=" M 146.47 367.40 C 163.30 365.36 180.13 363.23 196.96 361.16 C 202.92 372.21 208.80 383.30 214.73 394.37 C 208.95 399.30 203.01 404.05 197.27 409.04 C 195.22 395.79 186.37 384.16 174.57 377.97 C 174.11 378.18 173.17 378.59 172.70 378.80 C 171.12 384.66 166.55 389.23 160.88 391.25 C 156.11 386.71 151.76 381.76 147.04 377.17 C 146.84 373.91 146.66 370.65 146.47 367.40 Z" />
<path fill="#fbfbfb" d=" M 377.23 369.22 C 379.83 366.57 382.87 364.40 386.13 362.62 C 386.38 365.13 385.97 368.12 383.48 369.37 C 381.56 370.67 379.23 369.71 377.23 369.22 Z" />
<path fill="#fbfbfb" d=" M 104.78 369.58 C 106.07 368.54 107.21 366.80 109.07 366.96 C 110.96 366.71 112.11 368.57 113.40 369.60 C 110.54 370.09 107.64 370.06 104.78 369.58 Z" />
<path fill="#fbfbfb" d=" M 138.20 368.38 C 140.28 368.16 142.37 367.92 144.46 367.66 C 144.65 370.14 144.78 372.62 144.89 375.11 C 142.70 372.82 140.47 370.58 138.20 368.38 Z" />
<path fill="#000000" d=" M 431.44 367.68 C 436.43 365.56 442.51 370.49 441.24 375.80 C 440.64 381.08 433.52 383.89 429.52 380.35 C 425.02 377.18 426.26 369.43 431.44 367.68 Z" />
<path fill="#fbfbfb" d=" M 121.56 370.48 C 126.35 369.94 131.13 369.28 135.92 368.78 C 138.87 371.89 142.16 374.68 144.91 377.97 C 145.53 381.68 145.41 385.48 145.64 389.24 C 142.14 386.54 139.79 382.73 138.57 378.51 C 138.05 378.41 137.02 378.21 136.50 378.11 C 130.13 381.67 124.33 386.49 120.49 392.76 C 121.36 385.37 121.07 377.90 121.56 370.48 Z" />
<path fill="#fbfbfb" d=" M 432.33 369.46 C 436.11 368.01 440.58 372.00 439.21 375.90 C 438.55 379.38 433.93 381.20 431.11 379.05 C 427.36 376.93 428.19 370.56 432.33 369.46 Z" />
<path fill="#fbfbfb" d=" M 104.82 371.77 C 107.46 371.95 110.10 371.87 112.74 371.83 C 113.49 373.16 111.35 374.05 110.87 375.15 C 108.15 375.56 105.88 374.29 104.82 371.77 Z" />
<path fill="#fbfbfb" d=" M 147.80 390.15 C 147.56 386.84 147.39 383.53 147.15 380.23 C 150.97 384.11 154.81 387.97 158.71 391.78 C 154.96 392.43 151.24 391.62 147.80 390.15 Z" />
<path fill="#fbfbfb" d=" M 174.39 380.17 C 185.17 386.02 193.34 396.82 195.19 409.04 C 195.71 410.52 194.20 411.43 193.31 412.29 C 191.21 414.07 189.04 415.76 186.95 417.56 C 179.81 410.75 173.23 403.38 166.07 396.60 C 168.57 395.99 169.12 393.77 168.80 391.52 C 168.36 391.24 167.47 390.67 167.03 390.39 C 170.42 387.76 173.00 384.23 174.39 380.17 Z" />
<path fill="#fbfbfb" d=" M 120.47 396.89 C 123.93 389.63 130.08 383.92 137.09 380.10 C 138.37 384.13 140.85 387.83 144.42 390.16 C 141.02 391.87 142.36 396.75 146.14 396.56 C 146.73 408.43 147.51 420.30 148.10 432.18 C 148.68 433.86 146.87 434.72 146.13 435.88 C 141.37 432.03 136.66 428.13 131.92 424.27 C 134.52 418.89 134.85 412.34 132.01 406.98 C 129.72 402.19 125.36 398.76 120.47 396.89 Z" />
<path fill="#fbfbfb" d=" M 148.28 392.38 C 149.96 392.96 151.65 393.49 153.37 393.98 C 150.91 396.36 151.93 401.82 156.04 401.00 C 159.92 400.63 160.06 395.43 157.14 393.52 C 160.17 392.78 162.14 395.13 163.97 397.08 C 170.91 404.54 178.30 411.56 185.45 418.82 C 178.80 424.43 172.09 429.96 165.42 435.54 C 161.17 431.93 155.31 430.65 150.03 432.68 C 149.78 419.23 148.05 405.82 148.28 392.38 Z" />
<path fill="#fbfbfb" d=" M 200.32 408.80 C 205.63 404.83 210.53 400.36 215.65 396.16 C 220.17 404.54 224.68 412.94 229.10 421.38 C 220.08 425.16 211.15 429.15 202.17 433.05 C 200.16 431.04 198.15 429.03 196.15 427.01 C 196.78 424.74 197.15 422.42 197.35 420.08 C 199.38 421.95 202.22 423.46 205.02 422.36 C 209.52 421.13 211.54 415.10 208.66 411.43 C 206.86 408.72 203.31 408.13 200.32 408.80 Z" />
<path fill="#fbfbfb" d=" M 120.57 399.01 C 125.30 401.08 129.38 404.85 131.06 409.82 C 132.80 414.10 131.99 418.85 130.46 423.06 C 126.97 420.22 123.49 417.36 119.99 414.55 C 120.12 409.36 120.33 404.18 120.57 399.01 Z" />
<path fill="#fbfbfb" d=" M 237.69 417.69 C 243.71 412.37 250.71 408.19 258.26 405.42 C 258.49 406.39 258.73 407.38 258.96 408.36 C 251.86 411.45 244.72 414.45 237.69 417.69 Z" />
<path fill="#fbfbfb" d=" M 298.85 405.45 C 301.24 406.42 303.61 407.43 305.96 408.51 C 298.36 436.22 290.65 463.90 283.03 491.60 C 278.68 488.79 272.84 490.87 271.05 495.69 C 258.20 471.45 245.19 447.29 232.32 423.06 C 233.59 421.97 234.91 420.90 236.48 420.27 C 244.23 416.90 252.00 413.56 259.74 410.16 C 262.80 415.77 268.14 420.21 274.54 421.33 C 285.22 423.80 296.59 416.06 298.85 405.45 Z" />
<path fill="#fbfbfb" d=" M 307.80 409.44 C 315.12 413.64 321.57 419.23 326.81 425.85 C 324.68 428.55 323.30 432.43 325.44 435.56 C 327.10 438.96 331.15 439.55 334.54 439.11 C 338.69 449.99 340.35 461.95 338.10 473.45 C 333.21 472.17 327.97 472.38 323.31 474.42 C 323.43 471.69 320.69 469.61 318.24 471.21 C 315.90 472.72 316.94 475.76 318.88 477.09 C 314.98 480.39 312.25 485.01 311.31 490.04 C 309.09 489.36 305.27 489.77 305.95 492.98 C 305.84 495.80 309.09 496.39 311.21 495.62 C 311.76 500.65 314.18 505.28 317.79 508.80 C 309.08 516.19 298.28 520.70 287.10 522.80 C 290.61 520.46 292.41 516.23 292.73 512.14 C 292.94 507.11 290.09 502.45 286.14 499.53 C 285.98 497.29 285.60 495.08 284.73 493.02 C 292.34 465.14 300.10 437.30 307.80 409.44 Z" />
<path fill="#fbfbfb" d=" M 199.60 411.67 C 202.47 409.00 207.63 411.08 207.99 414.92 C 208.73 418.74 204.24 422.10 200.79 420.26 C 197.42 418.90 196.87 413.92 199.60 411.67 Z" />
<path fill="#fbfbfb" d=" M 188.36 418.98 C 190.77 416.95 193.19 414.93 195.68 413.00 C 195.69 417.13 195.32 421.25 194.74 425.33 C 192.59 423.24 190.47 421.11 188.36 418.98 Z" />
<path fill="#fbfbfb" d=" M 449.28 415.16 C 452.73 412.57 458.15 415.83 457.57 420.07 C 457.56 424.11 452.33 426.48 449.19 424.09 C 446.09 422.11 446.09 417.05 449.28 415.16 Z" />
<path fill="#fbfbfb" d=" M 119.84 416.97 C 123.05 419.63 126.32 422.24 129.54 424.90 C 127.26 428.65 123.49 431.09 119.42 432.50 C 119.45 427.32 119.78 422.15 119.84 416.97 Z" />
<path fill="#fbfbfb" d=" M 166.67 437.09 C 173.35 431.49 180.03 425.91 186.72 420.33 C 189.13 422.74 191.54 425.14 193.94 427.56 C 192.54 431.57 190.86 435.69 188.05 438.92 C 181.89 442.22 175.22 444.53 168.90 447.53 C 169.40 443.86 168.28 440.33 166.67 437.09 Z" />
<path fill="#fbfbfb" d=" M 229.97 424.85 C 231.05 425.43 231.90 426.29 232.40 427.43 C 245.21 451.53 258.12 475.58 270.95 499.67 C 270.53 499.98 269.68 500.58 269.26 500.88 C 262.85 494.64 256.70 488.14 250.42 481.75 C 250.18 480.59 249.83 479.48 249.38 478.41 C 247.48 477.35 245.18 476.97 243.76 475.19 C 235.63 466.79 227.37 458.51 219.14 450.21 C 219.95 446.43 221.27 442.79 222.46 439.11 C 226.14 439.70 230.45 438.66 231.96 434.86 C 233.91 431.34 231.37 427.97 229.97 424.85 Z" />
<path fill="#fbfbfb" d=" M 120.21 434.28 C 124.55 432.73 128.35 429.87 130.92 426.02 C 135.48 429.80 140.10 433.51 144.67 437.28 C 141.07 442.70 141.77 450.34 146.62 454.79 C 135.46 451.95 125.60 444.51 120.21 434.28 Z" />
<path fill="#fbfbfb" d=" M 329.64 426.29 C 332.05 426.14 334.99 426.19 336.39 428.54 C 338.40 430.97 337.13 434.21 335.49 436.45 C 333.68 432.98 331.69 429.62 329.64 426.29 Z" />
<path fill="#fbfbfb" d=" M 219.82 430.08 C 220.71 426.85 224.39 425.79 227.38 426.30 C 225.28 429.60 223.34 432.99 221.51 436.45 C 220.38 434.55 218.80 432.37 219.82 430.08 Z" />
<path fill="#fbfbfb" d=" M 228.67 428.27 C 230.32 427.85 230.27 430.18 230.68 431.24 C 231.13 435.20 227.16 437.83 223.52 437.38 C 224.94 434.19 226.52 431.04 228.67 428.27 Z" />
<path fill="#fbfbfb" d=" M 327.38 428.24 C 327.62 428.25 328.10 428.29 328.33 428.30 C 330.50 431.04 332.05 434.20 333.48 437.37 C 328.37 438.40 324.26 432.52 327.38 428.24 Z" />
<path fill="#fbfbfb" d=" M 195.56 429.11 C 197.10 430.71 198.67 432.29 200.25 433.87 C 197.28 435.16 194.30 436.44 191.35 437.80 C 192.97 435.01 194.52 432.17 195.56 429.11 Z" />
<path fill="#fbfbfb" d=" M 203.63 434.53 C 208.54 432.46 213.44 430.33 218.30 428.14 C 216.74 431.73 217.93 435.63 220.74 438.19 C 219.60 441.68 218.24 445.12 217.43 448.72 C 213.17 443.68 208.25 439.24 203.63 434.53 Z" />
<path fill="#fbfbfb" d=" M 150.27 434.87 C 154.31 433.06 159.39 433.22 162.83 436.23 C 165.51 438.27 166.65 441.64 166.95 444.88 C 166.67 446.33 166.88 448.61 165.06 449.13 C 160.51 451.22 155.87 453.10 151.30 455.14 C 151.25 453.63 151.21 452.12 151.16 450.62 C 154.35 452.81 159.15 452.46 161.38 449.08 C 164.53 445.24 161.87 438.68 156.97 438.05 C 154.58 437.36 152.20 438.53 150.49 440.14 C 150.46 438.38 150.37 436.62 150.27 434.87 Z" />
<path fill="#fbfbfb" d=" M 148.36 436.12 C 148.45 442.33 149.01 448.50 149.33 454.71 C 143.44 450.37 142.73 440.97 148.36 436.12 Z" />
<path fill="#fbfbfb" d=" M 119.18 436.34 C 125.12 446.87 135.76 454.79 147.75 456.82 C 137.72 460.86 127.92 465.43 117.95 469.61 C 118.52 458.53 118.78 447.43 119.18 436.34 Z" />
<path fill="#fbfbfb" d=" M 153.40 440.40 C 157.21 438.12 162.16 442.64 160.49 446.64 C 159.39 450.57 153.31 451.33 151.34 447.73 C 150.41 445.21 150.49 441.56 153.40 440.40 Z" />
<path fill="#fbfbfb" d=" M 170.05 449.14 C 174.68 447.11 179.34 445.15 183.96 443.11 C 184.15 443.27 184.54 443.60 184.73 443.77 C 181.66 445.63 179.24 448.38 176.05 450.07 C 172.66 452.20 168.82 453.41 165.06 454.70 C 166.60 452.75 167.51 450.00 170.05 449.14 Z" />
<path fill="#fbfbfb" d=" M 218.61 452.57 C 224.79 458.24 230.20 464.67 236.36 470.36 C 235.04 471.44 233.95 472.73 233.59 474.44 C 228.94 472.44 223.72 472.06 218.85 473.48 C 218.25 469.84 217.95 466.16 217.82 462.48 C 218.06 459.17 218.23 455.86 218.61 452.57 Z" />
<path fill="#fbfbfb" d=" M 117.94 471.84 C 128.46 467.20 139.03 462.66 149.57 458.07 C 150.31 471.80 151.18 485.53 151.81 499.27 C 139.97 492.36 128.52 484.70 117.98 475.92 C 117.90 474.56 117.88 473.20 117.94 471.84 Z" />
<path fill="#fbfbfb" d=" M 115.21 473.20 C 115.89 473.81 115.89 473.81 115.21 473.20 Z" />
<path fill="#fbfbfb" d=" M 240.53 474.49 C 241.58 475.64 242.64 476.78 243.72 477.92 C 243.19 479.33 242.70 480.75 242.32 482.22 C 241.35 480.22 239.84 478.59 238.15 477.18 C 238.95 476.29 239.75 475.39 240.53 474.49 Z" />
<path fill="#fbfbfb" d=" M 94.90 481.87 C 100.49 479.37 106.10 476.90 111.77 474.58 C 113.10 475.75 114.47 476.89 115.67 478.22 C 115.58 484.92 115.27 491.64 114.96 498.34 C 108.00 493.18 101.37 487.62 94.90 481.87 Z" />
<path fill="#000000" d=" M 308.19 477.87 C 310.10 476.86 312.79 477.13 313.89 479.18 C 315.61 481.68 312.88 485.62 309.92 484.93 C 306.49 484.78 305.80 479.75 308.19 477.87 Z" />
<path fill="#fbfbfb" d=" M 117.68 479.52 C 128.37 488.34 140.08 495.80 151.94 502.90 C 152.66 509.33 152.71 515.83 153.17 522.29 C 140.65 515.57 128.45 508.24 116.95 499.88 C 117.18 493.09 117.44 486.31 117.68 479.52 Z" />
<path fill="#fbfbfb" d=" M 242.99 482.98 C 244.52 485.37 247.35 485.26 249.52 483.84 C 255.55 489.98 261.69 496.02 267.76 502.13 C 262.71 508.14 263.20 518.11 269.82 522.76 C 258.67 520.70 247.89 516.18 239.21 508.79 C 242.90 505.01 245.88 500.00 245.61 494.54 C 246.36 495.09 246.89 496.34 248.05 495.98 C 251.40 496.17 252.40 490.50 249.03 489.80 C 248.19 489.85 246.52 489.96 245.69 490.01 C 245.06 487.57 244.37 485.12 242.99 482.98 Z" />
<path fill="#fbfbfb" d=" M 275.31 493.23 C 277.41 491.55 280.27 492.32 282.41 493.52 C 282.07 494.87 281.73 496.22 281.39 497.58 C 278.44 497.35 275.52 497.75 272.68 498.49 C 273.13 496.59 273.45 494.33 275.31 493.23 Z" />
<path fill="#fbfbfb" d=" M 273.37 500.43 C 276.70 499.28 280.32 499.17 283.63 500.47 C 281.19 504.17 275.76 504.20 273.37 500.43 Z" />
</svg>
