<svg xmlns="http://www.w3.org/2000/svg" viewBox="0 0 2623 2961" width="2623" height="2961">
	<style>
		tspan { white-space:pre }
		.shp0 { fill: #000000 } 
		.shp1 { fill: #001e5d } 
		.shp2 { fill: #ffffff } 
		.txt3 { font-size: 274px;fill: #123f8a;font-family: "De Valencia";text-anchor: middle } 
		.shp4 { fill: #ffffff;stroke: #ff0000;paint-order:stroke fill markers;stroke-width: 30.055 } 
		.shp5 { fill: #e20404;stroke: #ff0000;paint-order:stroke fill markers;stroke-width: 6.579 } 
		.txt6 { font-size: 341px;letter-spacing: 185px;fill: #ffffff;font-family: "Metropolis";font-weight: bold;text-anchor: middle } 
		.txt7 { font-size: 68px;letter-spacing: 37px;fill: #ffffff;font-family: "Metropolis";font-weight: bold;text-anchor: middle } 
		.txt8 { font-size: 22px;fill: #1e1e1e;font-family: "Ugly Qua" } 
		.txt9 { font-size: 135px;fill: #e20404;font-family: "De Valencia";text-anchor: middle } 
		.txt10 { font-size: 57px;fill: #123f8a;font-family: "Petit Formal Script";text-anchor: middle } 
	</style>
	<path id="Background" class="shp0" d="M-119.64,3430.45h2852.61v-3947h-2852.61z" />
	<path id="Shape 12" class="shp1" d="M0,2984.92h2623v-516.55h-2623z" />
	<path id="Shape 14" class="shp2" d="M0,2519.35h2623v-13.01h-2623z" />
	<text id="Toronto " style="transform: matrix(0.781,0,0,1.057,1400.479,1634.557)" >
		<tspan x="0" y="0" class="txt3">Toronto</tspan>
	</text>
	<path id="Shape 7" class="shp4" d="M1541.72 525.57L1398.27 399.37L1254.83 525.57C1254.83 525.75 1254.79 526.01 1254.71 526.37C1254.62 526.73 1254.58 526.99 1254.58 527.17L1254.58 654.96C1254.58 659.58 1256.16 663.57 1259.32 666.94C1262.48 670.32 1266.22 672 1270.55 672L1366.34 672L1366.34 569.77L1430.21 569.77L1430.21 672L1526 672C1530.32 672 1534.07 670.32 1537.23 666.94C1540.38 663.57 1541.97 659.58 1541.97 654.96L1541.97 527.17C1541.97 526.46 1541.88 525.93 1541.72 525.57L1541.72 525.57ZM1599.35 502.54C1599.18 500.14 1598.26 498.24 1596.6 496.81L1541.97 448.36L1541.97 339.73C1541.97 337.25 1541.22 335.2 1539.72 333.61C1538.23 332.01 1536.31 331.21 1533.98 331.21L1486.09 331.21C1483.76 331.21 1481.85 332.01 1480.35 333.61C1478.85 335.2 1478.1 337.25 1478.1 339.73L1478.1 391.65L1417.23 337.33C1411.91 332.72 1405.59 330.41 1398.27 330.41C1390.95 330.41 1384.64 332.72 1379.31 337.33L1199.95 496.81C1198.28 498.24 1197.37 500.14 1197.2 502.54C1197.04 504.93 1197.62 507.02 1198.95 508.8L1214.42 528.5C1215.75 530.09 1217.49 531.07 1219.66 531.43C1221.65 531.61 1223.65 530.99 1225.64 529.56L1398.27 375.94L1570.91 529.56C1572.24 530.81 1573.98 531.43 1576.14 531.43L1576.89 531.43C1579.05 531.07 1580.8 530.09 1582.13 528.5L1597.6 508.8C1598.93 507.02 1599.51 504.93 1599.35 502.54Z" />
	<path id="Shape 12" class="shp5" d="M0,2735.99h2623v-210.81h-2623z" />
	<text id="416.444.1166 " style="transform: matrix(0.591,0,0,0.898,1311.5,2735.988)" >
		<tspan x="0" y="0" class="txt6">416.444.1166</tspan>
	</text>
	<text id="www.SummerValleyHomes.com " style="transform: matrix(0.748,0,0,1.519,1312.995,2908.808)" >
		<tspan x="0" y="0" class="txt7">www.SummerValleyHomes.com</tspan>
	</text>
	<text id="President: Anthony Andriano Toronto, Ontario Postal code email " style="transform: matrix(2.163,0,0,2.106,2020.592,2236.404)" >
		<tspan x="0" y="0" class="txt8">President: Anthony Andriano</tspan>
		<tspan x="0" y="24.64" class="txt8">Toronto, Ontario</tspan>
		<tspan x="0" y="49.28" class="txt8">Postal code</tspan>
		<tspan x="0" y="73.92" class="txt8">email</tspan>
	</text>
	<text id="Design-Build-Renovate " style="transform: matrix(0.818,0,0,0.68,1498.43,1332.248)" >
		<tspan x="0" y="0" class="txt9">Design-Build-Renovate</tspan>
	</text>
	<text id="Summer Valley Homes" style="transform: matrix(3.283,0,0,5.914,1330,1153.915)" >
		<tspan x="0" y="0" class="txt10">Summer Valley Homes</tspan>
	</text>
</svg>